<mxfile host="www.draw.io" modified="2019-11-15T07:54:56.849Z" agent="Mozilla/5.0 (Macintosh; Intel Mac OS X 10_15_1) AppleWebKit/537.36 (KHTML, like Gecko) Chrome/78.0.3904.97 Safari/537.36" etag="Zk8kITqceA-Gqmu1-R9N" version="12.2.6" type="github" pages="1">
  <diagram id="JQp8zhZrJBLMYrqnZBfv" name="Page-1">
    <mxGraphModel dx="772" dy="745" grid="1" gridSize="10" guides="1" tooltips="1" connect="1" arrows="1" fold="1" page="1" pageScale="1" pageWidth="827" pageHeight="1169" math="0" shadow="0">
      <root>
        <mxCell id="0"/>
        <mxCell id="1" parent="0"/>
        <mxCell id="lCB2nlpcplpzmAmgKR2--1" value="" style="ellipse;whiteSpace=wrap;html=1;" parent="1" vertex="1">
          <mxGeometry x="160" y="210" width="120" height="80" as="geometry"/>
        </mxCell>
        <mxCell id="lCB2nlpcplpzmAmgKR2--2" value="&lt;h1&gt;Heading&lt;/h1&gt;&lt;p&gt;Lorem ipsum dolor sit amet, consectetur adipisicing elit, sed do eiusmod tempor incididunt ut labore et dolore magna aliqua.&lt;/p&gt;" style="text;html=1;strokeColor=none;fillColor=none;spacing=5;spacingTop=-20;whiteSpace=wrap;overflow=hidden;rounded=0;" parent="1" vertex="1">
          <mxGeometry x="413" y="130" width="190" height="120" as="geometry"/>
        </mxCell>
        <mxCell id="lCB2nlpcplpzmAmgKR2--3" value="Text" style="text;html=1;strokeColor=none;fillColor=none;align=center;verticalAlign=middle;whiteSpace=wrap;rounded=0;" parent="1" vertex="1">
          <mxGeometry x="160" y="310" width="40" height="20" as="geometry"/>
        </mxCell>
        <mxCell id="lCB2nlpcplpzmAmgKR2--4" value="" style="shape=process;whiteSpace=wrap;html=1;backgroundOutline=1;" parent="1" vertex="1">
          <mxGeometry x="390" y="370" width="120" height="60" as="geometry"/>
        </mxCell>
        <mxCell id="lCB2nlpcplpzmAmgKR2--5" value="Actor" style="shape=umlActor;verticalLabelPosition=bottom;labelBackgroundColor=#ffffff;verticalAlign=top;html=1;outlineConnect=0;" parent="1" vertex="1">
          <mxGeometry x="160" y="450" width="30" height="60" as="geometry"/>
        </mxCell>
        <mxCell id="lCB2nlpcplpzmAmgKR2--6" value="Actor" style="shape=umlActor;verticalLabelPosition=bottom;labelBackgroundColor=#ffffff;verticalAlign=top;html=1;outlineConnect=0;" parent="1" vertex="1">
          <mxGeometry x="160" y="550" width="30" height="60" as="geometry"/>
        </mxCell>
        <mxCell id="lCB2nlpcplpzmAmgKR2--7" value="" style="shape=card;whiteSpace=wrap;html=1;" parent="1" vertex="1">
          <mxGeometry x="160" y="650" width="80" height="100" as="geometry"/>
        </mxCell>
        <mxCell id="lCB2nlpcplpzmAmgKR2--8" value="" style="shape=trapezoid;perimeter=trapezoidPerimeter;whiteSpace=wrap;html=1;" parent="1" vertex="1">
          <mxGeometry x="160" y="770" width="120" height="60" as="geometry"/>
        </mxCell>
      </root>
    </mxGraphModel>
  </diagram>
</mxfile>
